<?xml version="1.0" standalone="no"?>
<!DOCTYPE svg PUBLIC "-//W3C//DTD SVG 20010904//EN"
 "http://www.w3.org/TR/2001/REC-SVG-20010904/DTD/svg10.dtd">
<svg version="1.0" xmlns="http://www.w3.org/2000/svg"
 width="189.000000pt" height="209.000000pt" viewBox="0 0 189.000000 209.000000"
 preserveAspectRatio="xMidYMid meet">

<g transform="translate(0.000000,209.000000) scale(0.100000,-0.100000)"
fill="#f95036" stroke="none">
<path d="M882 2070 c-12 -5 -61 -32 -108 -60 -46 -27 -86 -50 -88 -50 -3 0
-39 -20 -80 -45 -42 -25 -78 -45 -80 -45 -3 0 -50 -27 -106 -60 -56 -33 -103
-60 -105 -60 -2 0 -36 -19 -77 -43 -40 -23 -90 -51 -112 -62 -57 -29 -91 -68
-105 -117 -9 -31 -11 -169 -9 -508 3 -542 -4 -503 116 -576 40 -24 75 -44 77
-44 2 0 26 -13 53 -29 26 -15 68 -39 93 -53 50 -28 335 -190 389 -221 109 -63
164 -87 199 -87 40 0 124 41 346 168 214 123 412 234 470 265 22 12 53 33 68
47 57 50 57 52 57 555 0 503 0 505 -57 555 -30 26 -35 30 -140 86 -36 20 -99
56 -140 80 -41 24 -76 44 -79 44 -2 0 -38 20 -80 45 -41 25 -77 45 -79 45 -2
0 -26 13 -53 29 -246 145 -304 167 -370 141z m109 -947 c106 -148 216 -300
246 -340 29 -40 53 -75 53 -78 0 -3 -47 -5 -104 -5 l-104 0 -188 268 c-103
147 -208 296 -234 332 -26 36 -50 71 -54 78 -6 9 16 12 93 12 l99 0 193 -267z
m237 215 c108 -146 252 -348 252 -353 0 -3 -44 -5 -98 -5 -123 0 -91 -30 -316
298 l-77 112 100 0 100 0 39 -52z m-551 -320 c89 -120 223 -307 223 -310 0 -2
-47 -2 -105 0 l-106 3 -52 72 c-29 40 -92 129 -140 200 l-87 127 99 0 100 0
68 -92z"/>
</g>
</svg>
