<svg width="73" height="89" viewBox="0 0 73 89" fill="#3f98fd" xmlns="http://www.w3.org/2000/svg">
<path d="M41.1914 1.22363H0.868652L1.98895 87.655L41.1914 1.22363Z" fill="black"/>
<path d="M58.1787 6.07715L33.1641 57.2266L49.7784 88.0284H71.433L51.8319 54.9865C55.8172 54.1301 64.9061 53.3832 70.3129 38.7455C75.7198 24.1078 64.3391 10.8062 58.1787 6.07715Z" fill="black"/>
<path d="M19.7075 85.9502V73.9863H23.6951V85.9502H19.7075Z" fill="black"/>
<path d="M26.436 85.9502V73.9863H30.4236V85.9502H26.436Z" fill="black"/>
<path d="M41.1914 1.22363H0.868652L1.98895 87.655L41.1914 1.22363Z" stroke="black"/>
<path d="M58.1787 6.07715L33.1641 57.2266L49.7784 88.0284H71.433L51.8319 54.9865C55.8172 54.1301 64.9061 53.3832 70.3129 38.7455C75.7198 24.1078 64.3391 10.8062 58.1787 6.07715Z" stroke="black"/>
<path d="M19.7075 85.9502V73.9863H23.6951V85.9502H19.7075Z" stroke="black"/>
<path d="M26.436 85.9502V73.9863H30.4236V85.9502H26.436Z" stroke="black"/>
</svg>
